<svg width="102" height="21" viewBox="0 0 102 21" fill="none" xmlns="http://www.w3.org/2000/svg">
<path d="M15.5628 16.92V20H1.11477V17.564L8.89877 10.172C9.7761 9.332 10.3641 8.604 10.6628 7.988C10.9801 7.35333 11.1388 6.728 11.1388 6.112C11.1388 5.19733 10.8308 4.49733 10.2148 4.012C9.59877 3.52667 8.69343 3.284 7.49877 3.284C5.50143 3.284 3.97077 3.96533 2.90677 5.328L0.358766 3.368C1.1241 2.34133 2.15077 1.548 3.43877 0.987999C4.74543 0.409332 6.20143 0.119999 7.80677 0.119999C9.93477 0.119999 11.6334 0.623999 12.9028 1.632C14.1721 2.64 14.8068 4.012 14.8068 5.748C14.8068 6.812 14.5828 7.81067 14.1348 8.744C13.6868 9.67733 12.8281 10.7413 11.5588 11.936L6.32277 16.92H15.5628ZM32.0099 0.119999C34.6979 0.119999 36.7793 0.959999 38.2539 2.64C39.7473 4.32 40.4939 6.728 40.4939 9.864C40.4939 12.0667 40.0926 13.952 39.2899 15.52C38.4873 17.0693 37.3579 18.2547 35.9019 19.076C34.4646 19.8787 32.7939 20.28 30.8899 20.28C29.8819 20.28 28.9299 20.1773 28.0339 19.972C27.1566 19.748 26.3913 19.4307 25.7379 19.02L27.0819 16.276C28.0526 16.9107 29.2939 17.228 30.8059 17.228C32.6913 17.228 34.1659 16.6493 35.2299 15.492C36.2939 14.3347 36.8259 12.664 36.8259 10.48V10.452C36.2473 11.124 35.5099 11.6373 34.6139 11.992C33.7179 12.328 32.7099 12.496 31.5899 12.496C30.3019 12.496 29.1446 12.2533 28.1179 11.768C27.0913 11.264 26.2886 10.5547 25.7099 9.64C25.1313 8.72533 24.8419 7.67067 24.8419 6.476C24.8419 5.20667 25.1593 4.096 25.7939 3.144C26.4286 2.17333 27.2873 1.42667 28.3699 0.903999C29.4526 0.381332 30.6659 0.119999 32.0099 0.119999ZM32.2899 9.64C33.4659 9.64 34.4179 9.32267 35.1459 8.688C35.8926 8.05333 36.2659 7.25067 36.2659 6.28C36.2659 5.328 35.9019 4.544 35.1739 3.928C34.4646 3.29333 33.4753 2.976 32.2059 2.976C31.0673 2.976 30.1433 3.284 29.4339 3.9C28.7246 4.49733 28.3699 5.3 28.3699 6.308C28.3699 7.33467 28.7246 8.14667 29.4339 8.744C30.1433 9.34133 31.0953 9.64 32.2899 9.64ZM57.0159 16.92V20H42.5679V17.564L50.3519 10.172C51.2292 9.332 51.8172 8.604 52.1159 7.988C52.4332 7.35333 52.5919 6.728 52.5919 6.112C52.5919 5.19733 52.2839 4.49733 51.6679 4.012C51.0519 3.52667 50.1466 3.284 48.9519 3.284C46.9546 3.284 45.4239 3.96533 44.3599 5.328L41.8119 3.368C42.5772 2.34133 43.6039 1.548 44.8919 0.987999C46.1986 0.409332 47.6546 0.119999 49.2599 0.119999C51.3879 0.119999 53.0866 0.623999 54.3559 1.632C55.6252 2.64 56.2599 4.012 56.2599 5.748C56.2599 6.812 56.0359 7.81067 55.5879 8.744C55.1399 9.67733 54.2812 10.7413 53.0119 11.936L47.7759 16.92H57.0159ZM73.8187 0.399999V2.836L66.2027 20H62.3107L69.6747 3.48H61.9747V6.812H58.5867V0.399999H73.8187ZM84.5362 0.399999H101.14V2.388H84.5362V0.399999ZM91.0322 6.252H84.5362V4.264H101.14V6.252H94.6442V20H91.0322V6.252Z" fill="#DF6464"/>
</svg>
